<?xml version="1.0" standalone="no"?>
<!DOCTYPE svg PUBLIC "-//W3C//DTD SVG 20010904//EN"
 "http://www.w3.org/TR/2001/REC-SVG-20010904/DTD/svg10.dtd">
<svg version="1.0" xmlns="http://www.w3.org/2000/svg"
 width="260.000000pt" height="260.000000pt" viewBox="0 0 260.000000 260.000000"
 preserveAspectRatio="xMidYMid meet">
<metadata>
Created by potrace 1.11, written by Peter Selinger 2001-2013
</metadata>
<g transform="translate(0.000000,260.000000) scale(0.100000,-0.100000)"
fill="#000000" stroke="none">
<path d="M0 1300 l0 -1300 1300 0 1300 0 0 1300 0 1300 -406 0 c-362 0 -405
-2 -394 -15 7 -8 31 -23 54 -33 22 -11 47 -26 55 -35 7 -10 20 -17 27 -17 20
0 42 -50 49 -111 9 -83 15 -100 26 -93 17 10 28 -17 16 -38 -7 -10 -21 -18
-32 -18 -27 0 -44 -30 -52 -88 -3 -26 -11 -50 -17 -54 -14 -9 -46 0 -64 19
-18 18 -138 10 -162 -11 -8 -7 -26 -16 -40 -19 -14 -3 -56 -13 -95 -22 -113
-27 -159 -34 -166 -23 -4 7 -14 6 -27 -1 -11 -6 -44 -11 -73 -12 -78 -2 -81
-7 -52 -92 14 -40 26 -103 28 -143 3 -40 11 -91 19 -115 8 -23 13 -46 10 -51
-3 -4 9 -28 26 -52 34 -47 34 -68 -1 -59 -20 6 -20 5 -2 -24 22 -37 36 -41 43
-11 12 49 131 31 188 -28 13 -13 27 -24 31 -24 8 0 38 -54 41 -75 1 -5 6 -15
11 -22 7 -7 5 -13 -3 -16 -7 -3 0 -6 15 -6 19 -1 39 -12 57 -31 36 -38 43 -59
28 -77 -10 -12 -9 -18 5 -28 9 -6 13 -15 9 -19 -4 -4 2 -14 12 -22 16 -11 17
-17 8 -26 -9 -9 -19 -10 -42 -1 -33 12 -44 5 -29 -17 13 -22 11 -51 -3 -49
-38 5 -68 -2 -68 -16 0 -9 -6 -12 -15 -9 -8 4 -15 13 -15 21 0 22 -52 62 -80
62 -14 0 -19 -3 -12 -6 10 -4 8 -9 -6 -19 -13 -9 -18 -21 -15 -39 4 -18 1 -25
-10 -25 -8 0 -28 -7 -44 -16 -27 -16 -31 -16 -81 10 -63 32 -72 49 -43 80 11
12 21 30 21 39 0 9 5 17 11 17 28 0 38 36 38 130 l0 95 -32 20 c-17 11 -38 33
-45 48 -15 32 -31 34 -64 8 -34 -27 -159 -39 -190 -19 -22 15 -26 13 -68 -24
-37 -33 -42 -42 -33 -57 7 -12 8 -22 2 -28 -18 -18 10 -70 49 -87 29 -14 44
-31 70 -82 18 -35 28 -64 23 -64 -5 0 -13 5 -16 10 -8 13 -52 13 -60 0 -3 -5
-38 -19 -77 -31 l-70 -22 -40 22 c-22 11 -48 21 -59 21 -13 0 -19 7 -19 21 0
15 -4 19 -16 15 -9 -4 -38 -3 -64 0 -45 6 -49 9 -55 40 -3 19 -10 34 -14 34
-4 0 -21 11 -37 25 -16 14 -32 25 -36 25 -13 0 -9 28 4 34 7 3 3 3 -10 0 -18
-4 -25 -1 -29 15 -3 12 -9 21 -13 21 -4 0 -10 10 -14 22 -4 18 -8 20 -18 10
-18 -18 -24 -15 -47 24 -30 50 -28 121 4 184 28 56 31 72 11 64 -16 -6 -24 18
-18 54 5 23 35 31 48 11 3 -6 14 -9 25 -6 10 3 25 -3 35 -14 9 -10 14 -19 9
-19 -4 0 -2 -6 4 -14 10 -11 8 -17 -6 -25 -17 -10 -16 -11 5 -17 13 -4 22 -14
22 -25 0 -12 7 -19 20 -19 20 0 28 -25 10 -32 -5 -1 -7 -13 -4 -25 8 -28 46
-31 101 -8 27 11 39 12 49 4 8 -6 21 -8 30 -5 13 5 14 9 4 21 -10 12 -9 15 8
15 12 0 24 4 27 10 3 5 35 24 70 41 35 17 69 37 76 45 6 8 17 14 23 14 20 0
101 121 130 195 37 93 55 130 76 153 14 15 17 31 14 68 -2 27 -6 54 -9 61 -4
12 -45 6 -45 -7 0 -18 -45 -18 -69 0 -15 10 -45 22 -66 26 -22 4 -53 15 -70
25 -16 11 -41 24 -55 30 -14 6 -33 15 -43 20 -20 11 -88 26 -153 35 -43 6 -89
-10 -79 -27 4 -5 1 -10 -4 -10 -6 -1 -16 -2 -23 -3 -6 0 -21 -17 -32 -37 -12
-20 -29 -47 -38 -60 l-17 -24 9 30 c26 93 44 144 61 177 10 21 19 49 19 63 0
14 3 25 8 25 4 0 16 17 27 38 10 20 54 72 97 114 43 43 78 80 78 83 0 3 -173
5 -385 5 l-385 0 0 -1300z m788 648 c14 -14 -2 -48 -22 -48 -18 0 -27 35 -13
49 14 14 20 14 35 -1z m1273 -75 c-5 -11 -17 -25 -25 -33 -14 -11 -16 -9 -16
9 0 12 6 21 15 21 9 0 15 9 15 22 0 16 3 19 11 11 8 -8 8 -17 0 -30z m-1427
-312 c3 -5 -1 -11 -9 -15 -9 -3 -15 0 -15 9 0 16 16 20 24 6z m106 -21 c0 -5
-4 -10 -10 -10 -5 0 -10 5 -10 10 0 6 5 10 10 10 6 0 10 -4 10 -10z m-60 -30
c0 -5 -7 -10 -15 -10 -8 0 -15 5 -15 10 0 6 7 10 15 10 8 0 15 -4 15 -10z
m-193 -386 c-4 -4 3 -20 15 -37 17 -23 22 -46 23 -99 1 -69 -9 -85 -34 -54
-21 25 -39 102 -29 121 6 9 7 30 4 46 -4 23 -2 29 11 29 9 0 13 -3 10 -6z
m1328 -4 c3 -5 -1 -10 -9 -10 -9 0 -16 5 -16 10 0 6 4 10 9 10 6 0 13 -4 16
-10z m-1178 -172 c-3 -8 -6 -5 -6 6 -1 11 2 17 5 13 3 -3 4 -12 1 -19z m143
-263 c0 -9 -7 -13 -17 -9 -10 2 -8 -1 5 -7 12 -7 22 -16 22 -21 0 -17 39 -7
45 12 8 24 15 25 63 3 31 -14 133 -30 217 -34 67 -3 86 -10 83 -32 -2 -14 -11
-23 -25 -25 -25 -4 -26 -4 -17 -26 3 -9 15 -16 25 -16 10 0 19 -7 19 -15 0 -8
-9 -15 -20 -15 -11 0 -20 7 -20 15 0 8 -9 15 -20 15 -11 0 -20 -4 -20 -9 0 -5
-9 -7 -21 -4 -12 4 -25 0 -31 -8 -7 -11 -11 -11 -15 -1 -3 7 -23 12 -49 12
-37 0 -42 -3 -37 -17 3 -10 3 -15 -1 -12 -4 4 -23 3 -43 -2 -31 -6 -39 -5 -51
12 -10 15 -17 17 -27 9 -9 -7 -16 -6 -24 3 -6 8 -8 17 -4 20 3 4 -1 7 -9 7
-28 0 -77 66 -73 97 2 15 4 36 4 46 1 21 41 24 41 2z m472 -138 c-16 -7 -26
-7 -35 2 -18 18 11 33 37 19 20 -11 20 -11 -2 -21z m8 -42 c0 -8 -9 -15 -20
-15 -11 0 -20 7 -20 15 0 8 9 15 20 15 11 0 20 -7 20 -15z m-830 -306 c0 -6 9
-8 20 -4 15 5 20 2 20 -13 0 -13 6 -19 18 -18 12 1 17 -6 16 -21 0 -17 3 -20
12 -12 8 6 14 6 18 0 7 -10 -39 -51 -58 -51 -6 0 -28 -16 -50 -36 -21 -19 -45
-33 -52 -30 -18 7 -18 22 1 30 8 3 15 1 15 -5 0 -6 5 -7 11 -3 6 3 9 15 6 25
-3 12 0 19 9 19 17 0 17 1 3 37 -7 15 -11 39 -11 53 0 14 -2 19 -5 13 -2 -7
-9 -13 -14 -13 -14 0 -11 28 4 33 21 9 37 7 37 -4z"/>
<path d="M510 1540 c0 -5 5 -10 10 -10 6 0 10 5 10 10 0 6 -4 10 -10 10 -5 0
-10 -4 -10 -10z"/>
<path d="M670 1341 c0 -15 -5 -19 -17 -14 -14 5 -15 3 -7 -6 18 -20 59 -10 59
14 0 11 -8 21 -17 23 -13 2 -18 -3 -18 -17z"/>
</g>
</svg>
